<svg width="42" height="52" viewBox="0 0 42 52" fill="none" xmlns="http://www.w3.org/2000/svg">
<path d="M32.836 0H32.6093C32.2263 0.194141 31.9214 0.491808 31.7383 0.850515C31.4028 1.42935 31.1445 2.04159 30.9687 2.67458C30.931 2.86491 30.8238 3.03861 30.664 3.16836C30.5041 3.29811 30.3007 3.37656 30.0858 3.39136C29.4283 3.49299 28.8054 3.72799 28.2646 4.07842C27.7239 4.42886 27.2796 4.88545 26.9657 5.41334C26.5341 6.09874 26.1651 6.81429 25.8621 7.55301C25.0149 9.52149 24.3647 11.5542 23.5653 13.5387C23.1894 14.4427 23.1715 14.4427 22.038 14.4427C20.6838 14.4427 20.7793 14.2555 20.7614 15.5928C20.7614 16.0154 20.9045 16.2293 21.4057 16.2079C21.5608 16.2079 21.7934 16.1384 21.8531 16.3203C21.9128 16.5021 21.7099 16.5824 21.5906 16.6894C20.8833 17.3332 19.9881 17.7855 19.0075 17.9946C17.874 18.2674 16.7166 18.4813 15.613 18.813C12.7792 19.6635 10.1603 20.851 8.12002 22.8623C6.92705 24.1115 5.97168 25.5284 5.29227 27.056C3.10286 31.6777 2.04096 36.5454 1.21769 41.4613C0.829919 43.7668 0.555496 46.083 0.346696 48.4152C0.239313 49.5599 0.119999 50.7207 0.119999 51.8868H20.0037C20.0367 51.6514 19.9889 51.4125 19.8665 51.2021C19.6753 50.7753 19.3645 50.4 18.9643 50.1123C18.564 49.8246 18.0878 49.6344 17.5816 49.5599C17.164 49.4743 17.1163 49.362 17.3728 49.0678C17.7913 48.5671 18.112 48.0064 18.3214 47.4095C19.2938 44.8366 19.6696 42.1513 20.1409 39.4928C20.4072 37.4622 21.1037 35.4959 22.1931 33.6997C23.0429 32.3776 24.1763 31.2195 25.528 30.2923C26.0231 29.9553 26.041 29.9553 26.1245 30.5276C26.1842 30.9074 26.1961 31.2979 26.226 31.683C26.405 34.2102 26.3691 36.7459 26.1186 39.2681C25.8933 41.2232 25.8634 43.1924 26.0291 45.1522C26.2663 47.4275 26.7193 49.6805 27.3833 51.8868H35.3177C35.2141 51.3077 34.9168 50.7705 34.4651 50.3464C34.0134 49.9223 33.4286 49.6312 32.7883 49.5118C32.0405 49.4052 31.2761 49.4417 30.5451 49.6188C30.1872 49.6936 30.0381 49.6188 30.0082 49.2711C29.7614 46.4392 29.9622 43.5902 30.6048 40.8087C31.4005 37.5976 32.0098 34.3517 32.4303 31.0839C32.5869 29.7643 33.0502 28.4887 33.7905 27.3395C34.5004 26.2055 35.1208 25.0287 35.8188 23.8893C36.096 23.475 36.2627 23.009 36.3062 22.5275C36.3497 22.046 36.2686 21.562 36.0694 21.1131C35.9083 20.7333 35.7532 20.3482 35.5563 19.9844C34.9598 18.9414 34.3632 17.909 33.8144 16.8552C33.522 16.3203 33.5877 16.2561 34.2379 16.24C35.2103 16.24 35.2103 16.24 35.2282 15.3628C35.2282 15.2451 35.2282 15.1274 35.2282 15.0097C35.2282 14.6406 35.0731 14.4374 34.6317 14.4748C34.3334 14.4748 34.0351 14.4748 33.7249 14.4748C33.3132 14.4748 33.1939 14.3197 33.2953 13.9399C33.4966 13.3225 33.8925 12.7704 34.4354 12.35C34.9784 11.9296 35.6452 11.6588 36.3557 11.5702C37.6776 11.4675 39.0092 11.545 40.3051 11.8002C40.4546 11.8425 40.6167 11.8302 40.7562 11.7662C40.8958 11.7021 41.0016 11.5914 41.0508 11.4579C41.2894 10.923 41.5519 10.3881 41.8203 9.85314C41.8812 9.75824 41.9081 9.64888 41.8974 9.53983C41.8867 9.43078 41.839 9.3273 41.7607 9.24334C39.8517 7.07158 37.7816 5.04425 34.9598 3.74441C34.8234 3.69179 34.704 3.60939 34.6123 3.50475C34.5206 3.4001 34.4596 3.27652 34.4348 3.1453C34.2751 2.38065 34.021 1.6343 33.6771 0.920054C33.5158 0.539523 33.2205 0.216524 32.836 0V0Z" fill="black"/>
</svg>
